<svg xmlns="http://www.w3.org/2000/svg" viewBox="0 0 120 120">
  <defs>
    <radialGradient id="markGlow" cx="50%" cy="40%" r="75%">
      <stop offset="0%" stop-color="#fdf7f0" />
      <stop offset="60%" stop-color="#f6eddf" />
      <stop offset="100%" stop-color="#f1e3d3" />
    </radialGradient>
    <linearGradient id="markStroke" x1="0%" y1="0%" x2="100%" y2="100%">
      <stop offset="0%" stop-color="#d9c3ae" />
      <stop offset="100%" stop-color="#c5aa90" />
    </linearGradient>
  </defs>
  <circle cx="60" cy="60" r="54" fill="url(#markGlow)" stroke="url(#markStroke)" stroke-width="3" />
  <path
    fill="#3c281b"
    d="M60 28.5c-16.7 0-30 12.65-30 29.3c0 13.5 8.6 24.6 20.2 27.8c-2-3.5-3-7.6-3-12.2c0-12.9 8.7-21.6 18.7-21.6c5 0 9.2 1.7 12.5 4.8c0.7-2.3 1-4.7 1-7.3c0-12.3-9-20.8-19.4-20.8Z"
  />
  <path
    fill="#3c281b"
    d="M76.3 49.8c0 15.7-12.1 22.2-20.7 32.4c-3.1 3.8-3.4 7.9-1.3 12.2c10.4-1.7 19.6-9.9 22.8-19.4c3.3-9.9 1.4-19.8-0.8-25.2Z"
    opacity="0.92"
  />
  <path
    fill="#e9d6c3"
    d="M51 36.8c-8.1 2.4-14.5 10.3-14.5 19.5c0 7.2 3.7 13.7 9.6 17.3c-0.6-1.8-0.9-3.8-0.9-5.9c0-10.1 6.4-18 15.8-19.3c-2.6-5.1-6.2-8.7-9.9-11.6Z"
    opacity="0.85"
  />
  <path
    fill="#3c281b"
    d="M66.8 41.5c1.8 3.7 2.9 7.5 2.9 11.8c0 15-12 21.8-19.3 31.6c5.1-2.6 10.4-5.5 14.4-9.4c6.9-6.6 10.5-14.7 10.5-24.4c0-3.4-0.6-6.7-1.7-9.6c-2.2-0.7-4.4-1.1-6.8-1Z"
  />
</svg>
