<svg xmlns="http://www.w3.org/2000/svg" viewBox="0 0 400 400">
  <defs>
    <linearGradient id="bg" x1="0%" y1="0%" x2="0%" y2="100%">
      <stop offset="0%" stop-color="#f8f2e9" />
      <stop offset="100%" stop-color="#efe2d2" />
    </linearGradient>
    <linearGradient id="bag" x1="0%" y1="0%" x2="100%" y2="100%">
      <stop offset="0%" stop-color="#d4b590" />
      <stop offset="100%" stop-color="#b98c5f" />
    </linearGradient>
    <linearGradient id="label" x1="0%" y1="0%" x2="0%" y2="100%">
      <stop offset="0%" stop-color="#e8d5c1" />
      <stop offset="100%" stop-color="#d9c0a9" />
    </linearGradient>
    <linearGradient id="window" x1="0%" y1="0%" x2="100%" y2="100%">
      <stop offset="0%" stop-color="#6c4b32" stop-opacity="0.35" />
      <stop offset="100%" stop-color="#5a3a26" stop-opacity="0.6" />
    </linearGradient>
  </defs>
  <rect width="400" height="400" rx="38" fill="url(#bg)" />
  <g transform="translate(80 45)">
    <path d="M40 0h160l20 48v220c0 22-18 40-40 40H60c-22 0-40-18-40-40V48Z" fill="url(#bag)" />
    <path d="M32 48h176v12c0 6.6-5.4 12-12 12H44c-6.6 0-12-5.4-12-12Z" fill="#a87446" opacity="0.35" />
    <rect x="58" y="84" width="124" height="66" rx="12" fill="url(#label)" />
    <text x="120" y="122" text-anchor="middle" font-size="24" font-family="'Playfair Display', 'Georgia', serif" fill="#3c281b" letter-spacing="1.8">ROSE</text>
    <text x="120" y="148" text-anchor="middle" font-size="18" font-family="'Playfair Display', 'Georgia', serif" fill="#3c281b" letter-spacing="4">DE JERICHO</text>
    <path d="M52 190h136v64c0 18-14 32-32 32H84c-18 0-32-14-32-32Z" fill="url(#window)" />
    <g transform="translate(70 206)" fill="#e9d8c6">
      <path d="M42 12c-11 2-20 12-20 24s9 24 20 26c-3-5-4-10-4-16c0-14 9-24 20-27c-2-3-8-9-16-7Z" opacity="0.8" />
      <path d="M76 10c-4 0-8 2-10 5c-2 3-2 7 0 10c6 9 3 21-6 27c11-1 22-12 22-24c0-3-1-6-3-9c-1-1-1-2-3-3Z" opacity="0.9" />
      <path d="M95 40c0 12-9 23-20 26c8-1 16-6 22-12c5-5 8-12 8-19c0-3-1-6-2-9c-5 2-8 8-8 14Z" opacity="0.65" />
    </g>
  </g>
</svg>
