<svg xmlns="http://www.w3.org/2000/svg" viewBox="0 0 320 320">
  <defs>
    <radialGradient id="cocoon" cx="50%" cy="35%" r="70%">
      <stop offset="0%" stop-color="#f7efe4" />
      <stop offset="100%" stop-color="#ebdccb" />
    </radialGradient>
    <radialGradient id="ball" cx="50%" cy="45%" r="55%">
      <stop offset="0%" stop-color="#c69b6b" />
      <stop offset="100%" stop-color="#7b5335" />
    </radialGradient>
  </defs>
  <rect width="320" height="320" rx="34" fill="url(#cocoon)" />
  <g transform="translate(38 36)">
    <ellipse cx="122" cy="128" rx="108" ry="102" fill="#d6b28d" opacity="0.35" />
    <circle cx="122" cy="128" r="94" fill="url(#ball)" />
    <g stroke="#f0e2d3" stroke-width="6" stroke-linecap="round" fill="none" opacity="0.65">
      <path d="M70 152c12-24 40-48 84-64" />
      <path d="M88 92c28 0 68 12 96 44" />
      <path d="M58 120c22-16 52-28 108-24" />
      <path d="M110 60c16 20 28 44 32 108" />
      <path d="M150 62c10 32 16 74-6 124" />
      <path d="M170 90c16 32 12 80-12 118" />
    </g>
    <path d="M122 222c18 0 34-8 46-20-8 4-18 6-28 6c-24 0-48-12-68-36c4 26 26 50 50 50Z" fill="#f7efe4" opacity="0.4" />
  </g>
</svg>
