<svg xmlns="http://www.w3.org/2000/svg" viewBox="0 0 800 800">
  <defs>
    <linearGradient id="bag" x1="0%" x2="0%" y1="0%" y2="100%">
      <stop offset="0" stop-color="#e7d5b5" />
      <stop offset="1" stop-color="#d7b98f" />
    </linearGradient>
    <linearGradient id="label" x1="0%" x2="0%" y1="0%" y2="100%">
      <stop offset="0" stop-color="#f5ede1" />
      <stop offset="1" stop-color="#ebddc8" />
    </linearGradient>
    <radialGradient id="shadow" cx="50%" cy="85%" r="55%">
      <stop offset="0" stop-color="rgba(0,0,0,0.25)" />
      <stop offset="1" stop-color="rgba(0,0,0,0)" />
    </radialGradient>
  </defs>
  <rect width="800" height="800" fill="#f8f2e8" />
  <ellipse cx="400" cy="612" rx="220" ry="80" fill="url(#shadow)" opacity="0.35" />
  <path d="M210 140h380l30 120c12 48-12 100-12 156v200c0 22-18 40-40 40H232c-22 0-40-18-40-40V416c0-56-24-108-12-156z" fill="url(#bag)" stroke="#b9976e" stroke-width="6" />
  <path d="M240 140s54 32 160 32s160-32 160-32" fill="none" stroke="#b9976e" stroke-width="8" stroke-linecap="round" />
  <rect x="250" y="248" width="300" height="140" rx="24" fill="url(#label)" stroke="#b9976e" stroke-width="5" />
  <text x="400" y="320" font-family="'Playfair Display', 'Times New Roman', serif" font-size="60" text-anchor="middle" fill="#3b271a" letter-spacing="4">ROSE OF</text>
  <text x="400" y="380" font-family="'Playfair Display', 'Times New Roman', serif" font-size="64" text-anchor="middle" fill="#3b271a" letter-spacing="6">JERICHO</text>
  <g fill="#6c4a2f" opacity="0.9">
    <path d="M310 482c30-48 74-80 122-88s90 8 118 36c-36 8-66 18-98 42s-64 60-122 70c-22-12-30-36-20-60z" opacity="0.55" />
    <path d="M446 446c-24 28-48 56-62 92c34-10 58-28 84-50s54-32 90-34c-18-26-58-40-112-8z" opacity="0.45" />
  </g>
  <g fill="none" stroke="#7a5a3b" stroke-width="6" stroke-linecap="round">
    <path d="M346 500c20 40 70 74 112 82" />
    <path d="M316 520c12 32 48 60 76 66" />
    <path d="M504 492c-16 40-54 72-84 86" />
    <path d="M532 518c-18 30-46 54-70 64" />
  </g>
</svg>
